<?xml version="1.0" encoding="UTF-8" standalone="no"?><!DOCTYPE svg PUBLIC "-//W3C//DTD SVG 1.1//EN" "http://www.w3.org/Graphics/SVG/1.1/DTD/svg11.dtd"><svg width="100%" height="100%" viewBox="0 0 401 319" version="1.1" xmlns="http://www.w3.org/2000/svg" xmlns:xlink="http://www.w3.org/1999/xlink" xml:space="preserve" xmlns:serif="http://www.serif.com/" style="fill-rule:evenodd;clip-rule:evenodd;stroke-linejoin:round;stroke-miterlimit:2;"><g><path d="M397.178,25.733c0,-12.207 -8.944,-22.103 -19.977,-22.103c-67.43,0 -286.163,0 -353.594,0c-11.033,0 -19.977,9.896 -19.977,22.103c0,57.297 0,210.143 0,267.44c0,12.207 8.944,22.102 19.977,22.102c67.431,0 286.164,0 353.594,0c11.033,0 19.977,-9.895 19.977,-22.102c0,-57.297 0,-210.143 0,-267.44Z" style="fill:#fff;"/><path d="M400.809,25.733c-0,-14.308 -10.675,-25.733 -23.608,-25.733c-67.43,0 -286.163,0 -353.594,0c-12.932,0 -23.607,11.425 -23.607,25.733c0,57.297 0,210.143 0,267.44c-0,14.308 10.675,25.733 23.607,25.733c67.431,-0 286.164,-0 353.594,-0c12.933,-0 23.608,-11.425 23.608,-25.733l-0,-267.44Zm-3.631,-0c0,-12.207 -8.944,-22.103 -19.977,-22.103c-67.43,0 -286.163,0 -353.594,0c-11.033,0 -19.977,9.896 -19.977,22.103c0,57.297 0,210.143 0,267.44c0,12.207 8.944,22.102 19.977,22.102c67.431,0 286.164,0 353.594,0c11.033,0 19.977,-9.895 19.977,-22.102c0,-57.297 0,-210.143 0,-267.44Z" style="fill:#038d2c;"/><g><path d="M186.187,148.079c-30.314,-0 -54.976,-24.662 -54.976,-54.976c0,-30.313 24.662,-54.975 54.976,-54.975c30.313,-0 54.975,24.662 54.975,54.975c-0,30.314 -24.662,54.976 -54.975,54.976Z" style="fill:#038d2c;fill-rule:nonzero;"/><g><g><path d="M207.513,188.362c0,-12.17 3.417,-23.557 9.34,-33.254c-9.248,4.594 -19.658,7.188 -30.666,7.188c-14.279,0 -27.56,-4.347 -38.592,-11.788c-13.64,5.288 -26.154,13.408 -36.809,24.063c-20.141,20.141 -31.233,46.918 -31.233,75.401l0,23.697c0,3.926 3.183,7.109 7.109,7.109l199.049,-0c3.926,-0 7.109,-3.183 7.109,-7.109l-0,-23.697c-0,-0.427 -0.012,-0.855 -0.017,-1.283c-6.669,2.363 -13.841,3.653 -21.31,3.653c-35.278,0 -63.98,-28.701 -63.98,-63.98Z" style="fill:#038d2c;fill-rule:nonzero;"/></g><path d="M271.493,138.6c-27.439,0 -49.762,22.323 -49.762,49.762c0,27.439 22.323,49.762 49.762,49.762c27.439,0 49.762,-22.323 49.762,-49.762c0,-27.439 -22.323,-49.762 -49.762,-49.762Zm14.218,56.871l-7.109,0l0,7.109c0,3.926 -3.183,7.109 -7.109,7.109c-3.926,-0 -7.109,-3.183 -7.109,-7.109l0,-7.109l-7.109,0c-3.926,0 -7.108,-3.183 -7.108,-7.109c-0,-3.926 3.182,-7.109 7.108,-7.109l7.109,0l0,-7.108c0,-3.926 3.183,-7.109 7.109,-7.109c3.926,-0 7.109,3.183 7.109,7.109l0,7.108l7.109,0c3.926,0 7.109,3.183 7.109,7.109c-0,3.926 -3.183,7.109 -7.109,7.109Z" style="fill:#038d2c;fill-rule:nonzero;"/></g></g></g></svg>