<?xml version="1.0" encoding="UTF-8" standalone="no"?><!DOCTYPE svg PUBLIC "-//W3C//DTD SVG 1.1//EN" "http://www.w3.org/Graphics/SVG/1.1/DTD/svg11.dtd"><svg width="100%" height="100%" viewBox="0 0 401 319" version="1.1" xmlns="http://www.w3.org/2000/svg" xmlns:xlink="http://www.w3.org/1999/xlink" xml:space="preserve" xmlns:serif="http://www.serif.com/" style="fill-rule:evenodd;clip-rule:evenodd;stroke-linejoin:round;stroke-miterlimit:2;"><path d="M397.178,25.733c0,-12.207 -8.944,-22.103 -19.977,-22.103c-67.43,0 -286.163,0 -353.594,0c-11.033,0 -19.977,9.896 -19.977,22.103c0,57.297 0,210.143 0,267.44c0,12.207 8.944,22.102 19.977,22.102c67.431,0 286.164,0 353.594,0c11.033,0 19.977,-9.895 19.977,-22.102c0,-57.297 0,-210.143 0,-267.44Z" style="fill:#fff;"/><path d="M400.809,25.733c-0,-14.308 -10.675,-25.733 -23.608,-25.733c-67.43,-0 -286.163,-0 -353.594,-0c-12.932,0 -23.607,11.425 -23.607,25.733c0,57.297 0,210.143 0,267.44c-0,14.308 10.675,25.733 23.607,25.733c67.431,-0 286.164,-0 353.594,-0c12.933,-0 23.608,-11.425 23.608,-25.733l-0,-267.44Zm-3.631,-0c0,-12.207 -8.944,-22.103 -19.977,-22.103c-67.43,0 -286.163,0 -353.594,0c-11.033,0 -19.977,9.896 -19.977,22.103c0,57.297 0,210.143 0,267.44c0,12.207 8.944,22.102 19.977,22.102c67.431,0 286.164,0 353.594,0c11.033,0 19.977,-9.895 19.977,-22.102l0,-267.44Z" style="fill:#038d2c;"/><clipPath id="_clip1"><rect id="invest--3-" serif:id="invest (3)" x="69.955" y="29.003" width="260.9" height="260.9"/></clipPath><g clip-path="url(#_clip1)"><g id="_023---Investing-Money" serif:id="023---Investing-Money"><path id="Shape" d="M299.372,34.96c-9.914,-9.914 -24.35,-6.392 -33.743,3.088l-76.139,76.052l-23.22,6.218c-2.557,0.753 -4.505,2.831 -5.092,5.431c-0.587,2.6 0.28,5.314 2.266,7.092l13.523,13.567c1.788,1.981 4.505,2.844 7.109,2.259c2.604,-0.586 4.69,-2.53 5.458,-5.086l5.783,-21.959l30.829,-8.696c4.559,-1.313 9.471,-0.048 12.828,3.304l32.699,32.743c2.448,2.457 5.773,3.837 9.241,3.837c3.467,0 6.792,-1.38 9.24,-3.837l36.874,-36.917c5.086,-5.093 5.086,-13.344 -0,-18.437l-18.437,-18.437c-10.523,-10.784 1.87,-29.09 -9.219,-40.222Zm-117.405,103.795l-10.783,-10.784l14.653,-3.87l-3.87,14.654Zm139.147,-33.047l-36.917,36.873c-1.696,1.686 -4.435,1.686 -6.131,0l-32.961,-32.699c-4.078,-4.091 -9.616,-6.391 -15.393,-6.392c-4.348,-0 -5.435,0.696 -23.046,5.696l61.964,-61.92l52.18,52.18c0.861,0.808 1.358,1.931 1.374,3.112c0.016,1.181 -0.448,2.318 -1.287,3.15l0.217,-0Zm-46.092,-64.312c6.044,-4.349 13.045,-5.523 18.176,-0.261c3.957,3.957 2,11.958 2.043,20.48l-20.219,-20.219Z" style="fill:#038d2c;fill-rule:nonzero;"/><path id="Shape1" serif:id="Shape" d="M152.573,163.801c2.348,0 2.478,-0.652 11.784,-9.957c1.705,-1.706 1.705,-4.47 -0,-6.175c-1.705,-1.705 -4.47,-1.705 -6.175,-0l-8.697,8.697c-1.254,1.244 -1.631,3.123 -0.953,4.754c0.677,1.632 2.274,2.691 4.041,2.681Z" style="fill:#038d2c;fill-rule:nonzero;"/><path id="Shape2" serif:id="Shape" d="M169.966,159.453l0,4.348c0,2.402 1.947,4.349 4.348,4.349c2.402,-0 4.349,-1.947 4.349,-4.349l-0,-4.348c-0,-2.402 -1.947,-4.348 -4.349,-4.348c-2.401,-0 -4.348,1.946 -4.348,4.348Z" style="fill:#038d2c;fill-rule:nonzero;"/><path id="Shape3" serif:id="Shape" d="M156.921,137.711c0,-2.401 -1.947,-4.348 -4.348,-4.348l-4.349,-0c-2.401,-0 -4.348,1.947 -4.348,4.348c0,2.402 1.947,4.349 4.348,4.349l4.349,-0c2.401,-0 4.348,-1.947 4.348,-4.349Z" style="fill:#038d2c;fill-rule:nonzero;"/><path id="Shape4" serif:id="Shape" d="M330.854,243.115c-0.041,-1.957 -1.115,-3.745 -2.822,-4.702c-1.707,-0.956 -3.793,-0.938 -5.483,0.049c-7.138,4.305 -13.216,10.16 -17.785,17.132l0,-23.915c4.914,-3.87 8.697,-13.741 8.697,-24.394l-0,-4.349c0.193,-2.117 -0.464,-4.223 -1.826,-5.855c-1.363,-1.631 -3.318,-2.654 -5.436,-2.841l-11.566,-0c-2.118,0.187 -4.073,1.21 -5.436,2.841c-1.362,1.632 -2.019,3.738 -1.826,5.855l-0,4.349c-0,10.653 3.783,20.524 8.697,24.394l-0,23.915c-4.569,-6.972 -10.647,-12.827 -17.785,-17.132c-1.69,-0.987 -3.776,-1.005 -5.483,-0.049c-1.707,0.957 -2.781,2.745 -2.822,4.702c0.348,20.089 6.261,31.525 12.784,38.091l-38.048,0c8.175,-7.827 16.132,-22.655 16.567,-50.832c-0.021,-2.056 -1.149,-3.941 -2.951,-4.932c-1.802,-0.991 -3.998,-0.934 -5.746,0.149c-9.128,6.108 -16.598,14.385 -21.741,24.09l-0,-39.135c8.472,-5.434 13.435,-14.946 13.045,-25.003l-0,-17.393c-0,-4.803 -3.894,-8.697 -8.697,-8.697l-17.393,-0c-4.803,-0 -8.697,3.894 -8.697,8.697l0,17.393c-0.359,10.027 4.6,19.498 13.045,24.916l0,39.135c-5.143,-9.705 -12.614,-17.982 -21.742,-24.09c-1.748,-1.083 -3.944,-1.14 -5.745,-0.149c-1.802,0.991 -2.93,2.876 -2.951,4.932c0.435,28.177 8.392,43.005 16.567,50.832l-65.225,0c14.132,-10.784 30.438,-34.787 31.09,-89.097c0.032,-2.417 -1.285,-4.651 -3.415,-5.794c-2.13,-1.143 -4.72,-1.005 -6.716,0.358c-17.131,12.731 -30.174,30.186 -37.526,50.224l-0,-104.36c7.001,-2.566 9.566,-9.871 9.74,-17.394c3.631,3.866 8.582,6.225 13.871,6.61c3.803,-0.018 7.399,-1.734 9.805,-4.679c2.406,-2.945 3.371,-6.81 2.631,-10.54c-1.004,-4.316 -3.222,-8.254 -6.392,-11.349c4.42,0.096 8.772,-1.098 12.524,-3.436c9.914,-6.87 7.609,-24.22 -12.524,-24.698c13.698,-14.393 3.436,-28.482 -8.696,-26.09c-4.303,1.005 -8.227,3.223 -11.306,6.392c0.042,-4.419 -1.164,-8.759 -3.479,-12.523c-6.783,-10.088 -24.133,-7.697 -24.611,12.436c-14.437,-13.741 -28.482,-3.348 -26.09,8.697c1.005,4.302 3.223,8.226 6.392,11.305c-4.419,-0.042 -8.759,1.164 -12.523,3.479c-9.784,6.74 -7.827,24.177 12.523,24.655c-3.17,3.096 -5.388,7.034 -6.392,11.349c-2.174,11.871 11.697,22.525 26.307,8.697c0,7.435 2.696,14.784 9.741,17.393l-0,104.36c-7.422,-20.167 -20.608,-37.707 -37.918,-50.441c-1.996,-1.363 -4.586,-1.501 -6.716,-0.358c-2.13,1.143 -3.447,3.377 -3.415,5.794c0.739,54.31 16.958,78.313 31.09,89.097l-26.742,0c-2.402,0 -4.348,1.947 -4.348,4.348c-0,2.402 1.946,4.349 4.348,4.349l252.203,-0c2.401,-0 4.348,-1.947 4.348,-4.349c0,-2.401 -1.947,-4.348 -4.348,-4.348l-8.436,0c6.523,-6.566 12.436,-18.002 12.784,-38.091Zm-9.044,6.392c-1.914,20.828 -10.958,28.003 -16.741,30.438c1.286,-11.976 7.315,-22.938 16.741,-30.438Zm-25.742,-46.571l8.696,0l0,4.349c0.201,5.814 -1.311,11.56 -4.348,16.523c-3.037,-4.963 -4.549,-10.709 -4.348,-16.523l-0,-4.349Zm-17.046,46.571c9.41,7.512 15.436,18.468 16.741,30.438c-5.74,-2.478 -14.828,-9.653 -16.741,-30.438Zm-26.655,-13.045c-1.957,31.177 -14.35,40.613 -21.307,43.483c0.943,-16.811 8.719,-32.506 21.524,-43.44l-0.217,-0.043Zm-34.569,-50.919l-0,-17.393l17.393,-0l0,17.393c0.493,6.95 -2.841,13.617 -8.697,17.393c-5.856,-3.776 -9.189,-10.443 -8.696,-17.393Zm-17.176,50.962c12.734,10.983 20.431,26.69 21.307,43.484c-6.958,-2.87 -19.35,-12.306 -21.307,-43.484Zm-35.004,-39.961c-2.174,65.834 -28.177,80.314 -39.135,83.749c1.87,-49.049 28.003,-74.965 39.135,-83.749Zm-12.741,-84.618c-0.964,1.033 -2.418,1.45 -3.783,1.087c-5.191,-1.797 -9.47,-5.56 -11.914,-10.48c2.415,-1.763 4.542,-3.89 6.305,-6.305c4.919,2.445 8.682,6.723 10.479,11.915c0.354,1.364 -0.062,2.814 -1.087,3.783Zm10.827,-34.178c1.188,0.738 1.911,2.037 1.911,3.435c-0,1.398 -0.723,2.697 -1.911,3.435c-4.955,2.393 -10.645,2.767 -15.871,1.044c0.522,-2.963 0.522,-5.995 0,-8.958c5.226,-1.723 10.916,-1.349 15.871,1.044Zm-14.61,-28.395c1.366,-0.325 2.803,0.082 3.796,1.075c0.992,0.993 1.399,2.429 1.074,3.795c-1.797,5.192 -5.56,9.47 -10.479,11.915c-1.763,-2.415 -3.89,-4.542 -6.305,-6.305c2.444,-4.92 6.723,-8.683 11.914,-10.48Zm-30.438,-9.74c0.738,-1.188 2.037,-1.91 3.435,-1.91c1.398,-0 2.697,0.722 3.435,1.91c2.364,4.966 2.707,10.657 0.957,15.871c-2.963,-0.521 -5.995,-0.521 -8.958,0c-1.682,-5.242 -1.261,-10.933 1.174,-15.871l-0.043,-0Zm-27.264,10.827c0.974,-1.016 2.418,-1.431 3.783,-1.087c5.191,1.797 9.47,5.56 11.914,10.48c-2.415,1.763 -4.542,3.89 -6.305,6.305c-4.919,-2.445 -8.683,-6.723 -10.479,-11.915c-0.354,-1.365 0.062,-2.814 1.087,-3.783Zm-2.435,25.308c2.527,0.063 5.038,0.428 7.479,1.087c-0.522,2.963 -0.522,5.994 -0,8.957c-5.226,1.723 -10.917,1.349 -15.872,-1.043c-3.739,-2.696 -2.739,-9.001 8.393,-9.001Zm6.218,37.265c-1.366,0.325 -2.803,-0.082 -3.796,-1.075c-0.993,-0.993 -1.399,-2.429 -1.074,-3.795c1.796,-5.192 5.56,-9.47 10.479,-11.915c1.763,2.415 3.89,4.542 6.305,6.305c-2.444,4.92 -6.723,8.683 -11.914,10.48Zm11.218,-24.394c-0.15,-0.249 -0.325,-0.482 -0.521,-0.696c0.042,-0.288 0.042,-0.581 -0,-0.87c-1.326,-3.801 -1.326,-7.939 -0,-11.74c0.017,-0.246 0.017,-0.493 -0,-0.74c1.795,-3.931 4.857,-7.146 8.696,-9.131c0.235,-0.134 0.454,-0.295 0.653,-0.478c4.105,-1.379 8.548,-1.379 12.653,-0c0.289,0.042 0.582,0.042 0.87,-0c2.017,1.075 3.887,2.405 5.566,3.957c1.598,1.689 2.932,3.609 3.957,5.696c0.722,2.12 1.147,4.329 1.261,6.566c-0.107,2.284 -0.486,4.546 -1.131,6.74c-1.076,2.017 -2.405,3.887 -3.957,5.566c-1.686,1.541 -3.556,2.87 -5.566,3.957c-0.288,-0.043 -0.581,-0.043 -0.869,-0c-3.796,1.36 -7.946,1.36 -11.741,-0c-0.288,-0.043 -0.581,-0.043 -0.869,-0c-0.214,-0.197 -0.447,-0.372 -0.696,-0.522c-3.633,-1.742 -6.563,-4.672 -8.306,-8.305Zm11.393,18.263c2.963,0.521 5.995,0.521 8.958,-0c1.723,5.225 1.349,10.916 -1.044,15.871c-0.738,1.188 -2.037,1.91 -3.435,1.91c-1.398,0 -2.697,-0.722 -3.435,-1.91c-2.393,-4.955 -2.767,-10.646 -1.044,-15.871Zm-39.135,89.662c11.001,8.697 37.178,34.787 39.135,83.705c-10.871,-3.391 -36.961,-18.349 -39.135,-83.705Z" style="fill:#038d2c;fill-rule:nonzero;"/></g></g><path d="M273.457,83.741l-1.986,2.004l5.009,4.965l-3.491,3.523l-7.755,-2.194l-1.706,1.722l5.009,4.964l-1.985,2.004l2.004,1.986l1.985,-2.004l2.004,1.986l-1.986,2.003l2.004,1.986l1.986,-2.004l5.01,4.965l1.985,-2.004l-5.009,-4.965l3.491,-3.522l7.755,2.193l1.706,-1.722l-5.009,-4.964l1.986,-2.004l-2.004,-1.986l-1.986,2.004l-2.004,-1.986l1.986,-2.003l-2.004,-1.986l-1.986,2.004l-5.009,-4.965Zm1.074,16.952l-2.004,-1.986l1.295,-1.307l3.102,0.878l-2.393,2.415Zm5.957,-6.012l-1.295,1.307l-3.102,-0.878l2.393,-2.415l2.004,1.986Z" style="fill:#038d2c;fill-rule:nonzero;"/><path d="M259.408,79.749c-9.331,9.415 -9.26,24.715 0.154,34.045c9.416,9.33 24.716,9.26 34.045,-0.155c9.331,-9.415 9.261,-24.715 -0.154,-34.045c-9.416,-9.33 -24.715,-9.26 -34.045,0.155Zm32.195,31.904c-8.248,8.324 -21.731,8.385 -30.055,0.137c-8.324,-8.249 -8.385,-21.731 -0.136,-30.055c8.248,-8.324 21.731,-8.385 30.055,-0.137c8.324,8.249 8.385,21.732 0.136,30.055Z" style="fill:#038d2c;fill-rule:nonzero;"/><path d="M263.482,83.787c-7.117,7.182 -7.064,18.815 0.118,25.932c7.182,7.117 18.816,7.065 25.933,-0.118c7.117,-7.182 7.064,-18.815 -0.118,-25.932c-7.182,-7.117 -18.815,-7.064 -25.933,0.118Zm24.047,23.829c-6.022,6.077 -15.866,6.121 -21.943,0.099c-6.077,-6.022 -6.122,-15.866 -0.1,-21.943c6.023,-6.077 15.866,-6.121 21.943,-0.099c6.077,6.022 6.122,15.866 0.1,21.943Z" style="fill:#038d2c;fill-rule:nonzero;"/></svg>