<?xml version="1.0" encoding="UTF-8" standalone="no"?><!DOCTYPE svg PUBLIC "-//W3C//DTD SVG 1.1//EN" "http://www.w3.org/Graphics/SVG/1.1/DTD/svg11.dtd"><svg width="100%" height="100%" viewBox="0 0 401 319" version="1.1" xmlns="http://www.w3.org/2000/svg" xmlns:xlink="http://www.w3.org/1999/xlink" xml:space="preserve" xmlns:serif="http://www.serif.com/" style="fill-rule:evenodd;clip-rule:evenodd;stroke-linejoin:round;stroke-miterlimit:2;"><g><path d="M397.178,25.733c0,-12.207 -8.944,-22.103 -19.977,-22.103c-67.43,0 -286.163,0 -353.594,0c-11.033,0 -19.977,9.896 -19.977,22.103c0,57.297 0,210.143 0,267.44c0,12.207 8.944,22.102 19.977,22.102c67.431,0 286.164,0 353.594,0c11.033,0 19.977,-9.895 19.977,-22.102c0,-57.297 0,-210.143 0,-267.44Z" style="fill:#fff;"/><path d="M400.809,25.733c-0,-14.308 -10.675,-25.733 -23.608,-25.733c-67.43,-0 -286.163,-0 -353.594,-0c-12.932,0 -23.607,11.425 -23.607,25.733c0,57.297 0,210.143 0,267.44c-0,14.308 10.675,25.733 23.607,25.733c67.431,-0 286.164,-0 353.594,-0c12.933,-0 23.608,-11.425 23.608,-25.733l-0,-267.44Zm-3.631,-0c0,-12.207 -8.944,-22.103 -19.977,-22.103c-67.43,0 -286.163,0 -353.594,0c-11.033,0 -19.977,9.896 -19.977,22.103c0,57.297 0,210.143 0,267.44c0,12.207 8.944,22.102 19.977,22.102c67.431,0 286.164,0 353.594,0c11.033,0 19.977,-9.895 19.977,-22.102l0,-267.44Z" style="fill:#038d2c;"/><g><g><g><path d="M128.512,79.212l107.619,-29.375l-5.7,-11.52c-3.728,-7.488 -12.823,-10.58 -20.311,-6.851l-96.341,47.746l14.733,0Z" style="fill:#038d2c;fill-rule:nonzero;"/><path d="M269.538,50.686c-1.334,-0 -2.668,0.182 -4.002,0.545l-25.282,6.912l-77.213,21.069l125.838,0l-4.729,-17.34c-1.819,-6.76 -7.943,-11.186 -14.612,-11.186Z" style="fill:#038d2c;fill-rule:nonzero;"/><path d="M304.673,89.822l-224.058,0c-4.79,0 -9.064,2.213 -11.853,5.7c-1.274,1.606 -2.244,3.456 -2.789,5.487c-0.334,1.273 -0.546,2.607 -0.546,3.971l-0,168.885c-0,8.367 6.79,15.157 15.157,15.157l224.058,0c8.368,0 15.158,-6.79 15.158,-15.157l-0,-42.29l-89.945,0c-14.217,0 -25.767,-11.55 -25.767,-25.767l-0,-33.711c-0,-6.972 2.788,-13.308 7.306,-17.946c4.001,-4.123 9.367,-6.912 15.369,-7.609c1.001,-0.121 2.031,-0.182 3.062,-0.182l89.975,-0l-0,-41.38c0.03,-8.367 -6.76,-15.158 -15.127,-15.158Z" style="fill:#038d2c;fill-rule:nonzero;"/><path d="M330.441,160.85c-1.516,-1.394 -3.305,-2.455 -5.306,-3.152c-1.546,-0.515 -3.183,-0.819 -4.911,-0.819l-90.369,0c-8.367,0 -15.157,6.791 -15.157,15.158l-0,33.74c-0,8.367 6.79,15.158 15.157,15.158l90.369,-0c1.728,-0 3.365,-0.303 4.911,-0.819c2.001,-0.667 3.79,-1.758 5.306,-3.153c3.031,-2.758 4.941,-6.76 4.941,-11.185l-0,-33.741c-0,-4.426 -1.91,-8.428 -4.941,-11.187Zm-68.937,31.073c0,4.184 -3.395,7.579 -7.579,7.579l-5.032,0c-4.183,0 -7.579,-3.395 -7.579,-7.579l0,-5.032c0,-2.425 1.122,-4.578 2.911,-5.942c1.303,-1 2.91,-1.637 4.668,-1.637l5.032,0c4.184,0 7.579,3.395 7.579,7.579l0,5.032Z" style="fill:#038d2c;fill-rule:nonzero;"/></g></g><g><circle cx="137.724" cy="189.599" r="43.021" style="fill:#fff;"/><path d="M145.881,176.549l-3.263,0l0,8.156l-5.736,0l-4.51,-8.156l-2.804,0l0,8.156l-3.262,0l-0,3.263l3.262,-0l0,3.262l-3.262,0l-0,3.263l3.262,-0l0,8.156l3.263,-0l-0,-8.156l5.735,-0l4.511,8.156l2.804,-0l-0,-8.156l3.262,-0l0,-3.263l-3.262,0l-0,-3.262l3.262,-0l0,-3.263l-3.262,0l-0,-8.156Zm-13.05,14.681l-0,-3.262l2.127,-0l1.804,3.262l-3.931,0Zm9.787,0l-2.127,0l-1.804,-3.262l3.931,-0l0,3.262Z" style="fill:#038d2c;fill-rule:nonzero;"/><path d="M137.724,161.759c-15.329,0 -27.839,12.512 -27.839,27.84c-0,15.329 12.511,27.84 27.839,27.84c15.33,-0 27.84,-12.512 27.84,-27.84c0,-15.329 -12.512,-27.84 -27.84,-27.84Zm0,52.417c-13.552,0 -24.577,-11.025 -24.577,-24.577c0,-13.552 11.025,-24.577 24.577,-24.577c13.552,-0 24.578,11.025 24.578,24.577c-0,13.552 -11.026,24.577 -24.578,24.577Z" style="fill:#038d2c;fill-rule:nonzero;"/><path d="M137.724,168.393c-11.693,0 -21.206,9.513 -21.206,21.206c0,11.693 9.513,21.206 21.206,21.206c11.693,0 21.206,-9.513 21.206,-21.206c0,-11.693 -9.513,-21.206 -21.206,-21.206Zm0,39.15c-9.894,-0 -17.943,-8.05 -17.943,-17.944c-0,-9.894 8.049,-17.943 17.943,-17.943c9.894,-0 17.944,8.049 17.944,17.943c-0,9.894 -8.05,17.944 -17.944,17.944Z" style="fill:#038d2c;fill-rule:nonzero;"/></g></g></g></svg>