<?xml version="1.0" encoding="UTF-8" standalone="no"?><!DOCTYPE svg PUBLIC "-//W3C//DTD SVG 1.1//EN" "http://www.w3.org/Graphics/SVG/1.1/DTD/svg11.dtd"><svg width="100%" height="100%" viewBox="0 0 2564 579" version="1.1" xmlns="http://www.w3.org/2000/svg" xmlns:xlink="http://www.w3.org/1999/xlink" xml:space="preserve" xmlns:serif="http://www.serif.com/" style="fill-rule:evenodd;clip-rule:evenodd;stroke-linejoin:round;stroke-miterlimit:2;"><g><clipPath id="_clip1"><rect id="p" x="0" y="0" width="578.333" height="578.333"/></clipPath><g clip-path="url(#_clip1)"><g><g><g><path d="M288.982,-0c159.493,-0 288.985,129.488 288.985,288.983c-0,159.492 -129.492,288.984 -288.985,288.984c-159.492,0 -288.984,-129.492 -288.984,-288.984c0,-159.495 129.492,-288.983 288.984,-288.983Zm-0.688,118.238l-111.342,-0l-0,341.49l75.548,-0l-0,-128.327l35.794,-0c75.629,-0 112.714,-29.727 112.714,-84.37l-0,-44.423c-0,-54.643 -37.085,-84.37 -112.714,-84.37Zm-0,164.43l-35.794,-0l-0,-115.697l35.794,-0c24.09,-0 37.171,7.809 37.171,32.218l-0,51.26c-0,24.41 -13.081,32.219 -37.171,32.219Z" style="fill:#12b643;"/></g></g></g></g><g><path d="M859.222,148.124l0,61.398l-113.933,0l-0,67.673l108.307,-0l-0,61.398l-108.307,-0l-0,122.797l-54.857,-0l-0,-313.266l168.79,-0Z" style="fill:#12b643;fill-rule:nonzero;"/><path d="M1074.33,461.39l-49.582,-0l0,-29.131c-13.597,21.811 -30.417,32.716 -50.461,32.716c-20.044,-0 -36.864,-7.395 -50.461,-22.184c-13.597,-14.79 -20.396,-34.509 -20.396,-59.158c0,-24.649 7.033,-43.098 21.099,-55.348c14.066,-12.25 33.289,-18.374 57.67,-18.374l39.384,-0l0,-1.345c0,-25.695 -10.666,-38.542 -32,-38.542c-9.142,0 -18.813,2.316 -29.01,6.947c-10.198,4.631 -18.813,10.382 -25.846,17.254l-23.561,-43.472c24.85,-23.006 53.216,-34.509 85.099,-34.509c22.974,0 41.728,7.32 56.263,21.96c14.535,14.64 21.802,37.796 21.802,69.466l0,153.72Zm-53.098,-91.874l-0,-11.652l-33.055,-0c-21.099,-0 -31.648,8.366 -31.648,25.097c-0,8.665 2.52,15.312 7.56,19.943c5.04,4.631 12.249,6.947 21.626,6.947c9.378,-0 17.641,-3.66 24.791,-10.98c7.151,-7.32 10.726,-17.105 10.726,-29.355Z" style="fill:#12b643;fill-rule:nonzero;"/><path d="M1240.31,279.435c-15.706,0 -27.428,7.096 -35.164,21.288c-7.736,14.192 -11.605,32.94 -11.605,56.245l0,104.422l-52.747,-0l0,-241.112l52.747,-0l0,31.819c6.799,-9.859 15.297,-18.225 25.495,-25.097c10.198,-6.871 20.571,-10.457 31.121,-10.756l0.351,63.191l-10.198,0Z" style="fill:#12b643;fill-rule:nonzero;"/><path d="M1477.32,331.422l0,129.968l-53.098,-0l-0,-131.76c-0,-19.122 -2.286,-33.164 -6.857,-42.128c-4.572,-8.963 -11.956,-13.445 -22.154,-13.445c-10.198,0 -19.224,4.856 -27.077,14.566c-7.853,9.71 -11.78,23.976 -11.78,42.799l-0,129.968l-52.747,-0l-0,-241.112l52.747,-0l-0,27.338c14.535,-20.914 31.179,-31.372 49.934,-31.372c11.956,0 22.798,4.482 32.527,13.445c9.729,8.964 17.055,19.869 21.978,32.716c7.267,-14.64 17.055,-25.993 29.362,-34.06c12.308,-8.067 24.674,-12.101 37.099,-12.101c22.271,0 40.205,8.441 53.802,25.322c13.597,16.88 20.395,41.305 20.395,73.274l0,146.55l-53.098,-0l-0,-131.76c-0,-37.048 -10.667,-55.573 -32,-55.573c-10.549,0 -19.692,4.856 -27.428,14.566c-7.737,9.71 -11.605,23.976 -11.605,42.799Z" style="fill:#12b643;fill-rule:nonzero;"/><path d="M1777.62,216.244c22.037,0 41.671,11.727 58.901,35.181c17.231,23.454 25.846,52.958 25.846,88.512c0,35.555 -8.615,65.283 -25.846,89.185c-17.23,23.902 -37.392,35.853 -60.483,35.853c-23.091,-0 -41.67,-11.802 -55.736,-35.405l0,118.763l-52.747,0l0,-328.055l52.747,-0l0,26.89c16.176,-20.616 35.282,-30.924 57.318,-30.924Zm-58.021,124.814c-0,19.57 4.278,35.554 12.835,47.953c8.557,12.399 18.93,18.599 31.121,18.599c12.19,0 22.857,-6.2 31.999,-18.599c9.143,-12.399 13.715,-28.309 13.715,-47.729c-0,-19.42 -4.455,-35.704 -13.363,-48.85c-8.908,-13.146 -19.575,-19.719 -32,-19.719c-12.425,-0 -22.915,6.498 -31.472,19.495c-8.557,12.997 -12.835,29.28 -12.835,48.85Z" style="fill:#12b643;fill-rule:nonzero;"/><path d="M2083.91,426.433c-21.334,25.695 -46.359,38.542 -75.077,38.542c-28.718,-0 -52.454,-11.279 -71.208,-33.836c-18.755,-22.558 -28.132,-52.809 -28.132,-90.753c-0,-37.945 9.553,-68.121 28.659,-90.529c19.106,-22.408 41.67,-33.613 67.692,-33.613c26.022,0 48.117,10.009 66.285,30.027c18.169,20.018 27.253,47.506 27.253,82.462l0,35.853l-137.845,0c1.641,13.146 7.033,23.902 16.175,32.268c9.143,8.366 19.458,12.549 30.945,12.549c18.52,-0 33.758,-7.918 45.714,-23.753l29.539,40.783Zm-37.978,-109.8c-1.172,-14.341 -5.392,-25.396 -12.66,-33.164c-7.267,-7.768 -16.117,-11.652 -26.549,-11.652c-10.432,-0 -19.985,4.033 -28.659,12.1c-8.674,8.067 -13.714,18.972 -15.121,32.716l82.989,-0Z" style="fill:#12b643;fill-rule:nonzero;"/><path d="M2316.35,461.39l-49.582,-0l-0,-29.131c-13.597,21.811 -30.418,32.716 -50.461,32.716c-20.044,-0 -36.865,-7.395 -50.462,-22.184c-13.597,-14.79 -20.395,-34.509 -20.395,-59.158c-0,-24.649 7.033,-43.098 21.099,-55.348c14.065,-12.25 33.289,-18.374 57.67,-18.374l39.384,-0l-0,-1.345c-0,-25.695 -10.667,-38.542 -32,-38.542c-9.143,0 -18.813,2.316 -29.011,6.947c-10.197,4.631 -18.813,10.382 -25.846,17.254l-23.56,-43.472c24.85,-23.006 53.216,-34.509 85.098,-34.509c22.975,0 41.729,7.32 56.264,21.96c14.535,14.64 21.802,37.796 21.802,69.466l-0,153.72Zm-53.099,-91.874l0,-11.652l-33.054,-0c-21.099,-0 -31.649,8.366 -31.649,25.097c0,8.665 2.521,15.312 7.561,19.943c5.04,4.631 12.249,6.947 21.626,6.947c9.377,-0 17.641,-3.66 24.791,-10.98c7.15,-7.32 10.725,-17.105 10.725,-29.355Z" style="fill:#12b643;fill-rule:nonzero;"/><path d="M2435.55,461.39l-52.747,-0l0,-332.537l52.747,-0l0,170.75l58.725,-79.773l66.461,-0l-72.087,97.699l74.901,143.861l-62.594,-0l-48.175,-92.322l-17.231,22.856l0,69.466Z" style="fill:#12b643;fill-rule:nonzero;"/></g></g></svg>