<?xml version="1.0" encoding="UTF-8" standalone="no"?><!DOCTYPE svg PUBLIC "-//W3C//DTD SVG 1.1//EN" "http://www.w3.org/Graphics/SVG/1.1/DTD/svg11.dtd"><svg width="100%" height="100%" viewBox="0 0 401 319" version="1.1" xmlns="http://www.w3.org/2000/svg" xmlns:xlink="http://www.w3.org/1999/xlink" xml:space="preserve" xmlns:serif="http://www.serif.com/" style="fill-rule:evenodd;clip-rule:evenodd;stroke-linejoin:round;stroke-miterlimit:2;"><g><path d="M397.178,25.733c0,-12.207 -8.944,-22.103 -19.977,-22.103c-67.43,0 -286.163,0 -353.594,0c-11.033,0 -19.977,9.896 -19.977,22.103c0,57.297 0,210.143 0,267.44c0,12.207 8.944,22.102 19.977,22.102c67.431,0 286.164,0 353.594,0c11.033,0 19.977,-9.895 19.977,-22.102c0,-57.297 0,-210.143 0,-267.44Z" style="fill:#fff;"/><path d="M400.809,25.733c-0,-14.308 -10.675,-25.733 -23.608,-25.733c-67.43,0 -286.163,0 -353.594,0c-12.932,0 -23.607,11.425 -23.607,25.733c0,57.297 0,210.143 0,267.44c-0,14.308 10.675,25.733 23.607,25.733c67.431,-0 286.164,-0 353.594,-0c12.933,-0 23.608,-11.425 23.608,-25.733l-0,-267.44Zm-3.631,-0c0,-12.207 -8.944,-22.103 -19.977,-22.103c-67.43,0 -286.163,0 -353.594,0c-11.033,0 -19.977,9.896 -19.977,22.103c0,57.297 0,210.143 0,267.44c0,12.207 8.944,22.102 19.977,22.102c67.431,0 286.164,0 353.594,0c11.033,0 19.977,-9.895 19.977,-22.102c0,-57.297 0,-210.143 0,-267.44Z" style="fill:#038d2c;"/><g><g><path d="M267.621,35.361l-175.797,0c-8.566,0 -15.511,6.945 -15.511,15.512l0,124.091c0,8.567 6.945,15.512 15.511,15.512l67.217,-0l0,-10.341l-67.217,0c-2.855,0 -5.17,-2.315 -5.17,-5.171l-0,-124.091c-0,-2.856 2.315,-5.171 5.17,-5.171l175.797,-0c2.856,-0 5.171,2.315 5.171,5.171l0,93.068l10.341,0l-0,-93.068c-0,-8.567 -6.945,-15.512 -15.512,-15.512Z" style="fill:#038d2c;fill-rule:nonzero;"/></g></g><g><g><rect x="138.359" y="185.305" width="10.341" height="31.023" style="fill:#038d2c;"/></g></g><g><g><path d="M112.507,159.453c-2.856,-0 -5.171,-2.315 -5.171,-5.171l-0,-10.341l-10.341,0l0,10.341c0,8.567 6.945,15.512 15.512,15.512l10.34,-0l0,-10.341l-10.34,-0Z" style="fill:#038d2c;fill-rule:nonzero;"/></g></g><g><g><rect x="96.995" y="123.259" width="10.341" height="10.341" style="fill:#038d2c;"/></g></g><g><g><path d="M265.279,144.882c-10.536,-10.538 -24.827,-16.458 -39.729,-16.457c-31.026,0.001 -56.176,25.153 -56.175,56.179c0.001,31.026 25.153,56.177 56.179,56.176c14.897,-0.001 29.183,-5.918 39.718,-16.451c21.94,-21.936 21.944,-57.506 0.007,-79.447Zm-39.756,85.562c-25.314,-0.009 -45.829,-20.538 -45.821,-45.852c0.009,-25.315 20.538,-45.83 45.852,-45.821c12.168,-0.033 23.841,4.808 32.414,13.443c8.588,8.598 13.411,20.255 13.407,32.409c-0.009,25.314 -20.537,45.829 -45.852,45.821Z" style="fill:#038d2c;fill-rule:nonzero;"/></g></g><g><g><path d="M322.982,260.278l-32.455,-32.445c-0.97,-0.97 -2.285,-1.515 -3.656,-1.515c-1.371,0.001 -2.686,0.545 -3.655,1.515l-14.426,14.426c-2.018,2.018 -2.018,5.291 0,7.311l32.455,32.46c0.97,0.97 2.285,1.515 3.656,1.515c1.373,-0.005 2.689,-0.555 3.655,-1.531l14.426,-14.425c2.018,-2.02 2.018,-5.293 -0,-7.311Zm-18.082,10.785l-25.144,-25.149l7.115,-7.115l25.144,25.15l-7.115,7.114Z" style="fill:#038d2c;fill-rule:nonzero;"/></g></g><g><g><path d="M265.278,217.012l-7.312,7.312l18.032,18.031l7.312,-7.312l-18.032,-18.031Z" style="fill:#038d2c;"/></g></g><g><g><path d="M226.257,149.112l0,10.341c14.271,0.017 25.836,11.582 25.852,25.852l10.341,0c-0.022,-19.979 -16.213,-36.17 -36.193,-36.193Z" style="fill:#038d2c;fill-rule:nonzero;"/></g></g><g><g><rect x="128.018" y="211.158" width="41.364" height="10.341" style="fill:#038d2c;"/></g></g><g><g><path d="M153.87,56.043c-8.566,0 -15.511,6.945 -15.511,15.512c-0,8.566 6.945,15.511 15.511,15.511c8.567,0 15.512,-6.945 15.512,-15.511c-0,-8.567 -6.945,-15.512 -15.512,-15.512Zm0,20.682c-2.855,-0 -5.17,-2.315 -5.17,-5.171c-0,-2.855 2.315,-5.17 5.17,-5.17c2.856,-0 5.171,2.315 5.171,5.17c0,2.856 -2.315,5.171 -5.171,5.171Z" style="fill:#038d2c;fill-rule:nonzero;"/></g></g><g><g><path d="M190.064,92.236c-8.567,0 -15.511,6.945 -15.511,15.512c-0,8.566 6.944,15.511 15.511,15.511c8.567,0 15.512,-6.945 15.512,-15.511c-0,-8.567 -6.945,-15.512 -15.512,-15.512Zm0,20.682c-2.856,0 -5.171,-2.315 -5.171,-5.17c0,-2.856 2.315,-5.171 5.171,-5.171c2.856,0 5.171,2.315 5.171,5.171c-0.001,2.855 -2.315,5.17 -5.171,5.17Z" style="fill:#038d2c;fill-rule:nonzero;"/></g></g><g><g><path d="M145.043,73.071l-25.852,25.852l7.312,7.312l25.852,-25.852l-7.312,-7.312Z" style="fill:#038d2c;"/></g></g><g><g><path d="M162.674,73.084l-7.312,7.312l25.852,25.852l7.312,-7.312l-25.852,-25.852Z" style="fill:#038d2c;"/></g></g><g><g><path d="M226.257,56.043c-8.567,0 -15.511,6.945 -15.511,15.512c-0,8.566 6.944,15.511 15.511,15.511c8.567,0 15.512,-6.945 15.512,-15.511c0,-8.567 -6.945,-15.512 -15.512,-15.512Zm0,20.682c-2.855,-0 -5.17,-2.315 -5.17,-5.171c-0,-2.855 2.315,-5.17 5.17,-5.17c2.856,-0 5.171,2.315 5.171,5.17c-0,2.856 -2.315,5.171 -5.171,5.171Z" style="fill:#038d2c;fill-rule:nonzero;"/></g></g><g><g><path d="M217.427,73.089l-25.852,25.852l7.312,7.312l25.852,-25.852l-7.312,-7.312Z" style="fill:#038d2c;"/></g></g></g></svg>