<?xml version="1.0" encoding="UTF-8" standalone="no"?><!DOCTYPE svg PUBLIC "-//W3C//DTD SVG 1.1//EN" "http://www.w3.org/Graphics/SVG/1.1/DTD/svg11.dtd"><svg width="100%" height="100%" viewBox="0 0 2174 1056" version="1.1" xmlns="http://www.w3.org/2000/svg" xmlns:xlink="http://www.w3.org/1999/xlink" xml:space="preserve" xmlns:serif="http://www.serif.com/" style="fill-rule:evenodd;clip-rule:evenodd;stroke-linecap:round;stroke-linejoin:round;stroke-miterlimit:1.5;"><g><g><g><path d="M594.273,61.793c-51.846,-51.82 -153.302,-57.829 -225.09,-57.829c-7.441,0 -13.474,6.033 -13.474,13.474c0,71.814 6.009,173.27 57.829,225.117c24.329,21.668 56.131,33.023 88.683,31.664c33.563,1.322 66.403,-9.974 92.052,-31.664c38.615,-38.643 45.701,-135.059 -0,-180.762Z" style="fill:#69b300;fill-rule:nonzero;"/><path d="M935.666,57.266c-71.814,-0 -173.27,6.008 -225.117,57.828c-45.811,45.81 -38.616,142.092 0,180.735c25.656,21.693 58.507,32.989 92.078,31.663c32.551,1.357 64.353,-9.998 88.684,-31.663c51.845,-51.846 57.828,-153.302 57.828,-225.117c-0.014,-7.43 -6.042,-13.446 -13.473,-13.446Z" style="fill:#69b300;fill-rule:nonzero;"/></g><path d="M494.513,587.528c239.749,-219.395 19.464,-419.956 -13.58,-442.549c-4.758,-3.038 -9.264,-6.454 -13.474,-10.213c-5.17,-5.352 -5.021,-13.882 0.331,-19.052c5.222,-5.044 13.499,-5.044 18.721,-0c3.043,2.573 6.266,4.924 9.647,7.033c35.03,23.956 117.543,80.411 146.08,265.591c22.053,-96.814 87.426,-178.098 177.259,-220.401c6.879,-3.236 15.089,-0.644 18.862,5.956c3.408,6.006 1.304,13.637 -4.702,17.046c-0.225,0.128 -0.455,0.249 -0.687,0.363l-2.183,1.024c-127.997,32.227 -145.144,248.733 -271.742,395.202l-64.532,-0Z" style="fill:#135c16;fill-rule:nonzero;"/><circle cx="277.926" cy="802.264" r="216.601" style="fill:#135c16;"/><path d="M5.632,1050.52l1344.21,-0l-239.563,-752.728l239.563,752.728l-1344.21,-0Z" style="fill:none;"/><g><path d="M940.444,251.978c355.964,229.356 461.804,498.205 368.217,798.543l-634.398,0.589" style="fill:none;stroke:#135c16;stroke-width:8.75px;"/><path d="M404.903,251.978c-355.963,229.356 -461.804,498.205 -368.216,798.543l634.397,0.589" style="fill:none;stroke:#135c16;stroke-width:8.75px;"/></g><g><g><path d="M509.913,689.467c0,-29.439 11.045,-54.047 33.136,-73.826c22.091,-19.779 50.557,-29.669 85.4,-29.669c49.569,0 82.615,16.099 99.138,48.298c7.903,-15.64 21.193,-27.752 39.871,-36.338c17.601,-7.973 37.357,-11.96 59.268,-11.96c37.716,0.307 66.991,8.586 87.824,24.839c22.63,17.786 33.944,44.311 33.944,79.576l-0.538,327.503l-78.665,0l0,-317.844c0,-28.825 -15.266,-43.391 -45.798,-43.697c-21.192,-0 -36.189,4.216 -44.989,12.649c-8.801,8.433 -13.201,21.849 -13.201,40.248l0,308.644l-79.742,0l0,-308.644c0,-33.732 -16.882,-51.364 -50.647,-52.897c-31.25,-1.227 -46.875,13.492 -46.875,44.157l-0,317.384l-78.126,0l0,-328.423Z" style="fill:#135c16;fill-rule:nonzero;"/><clipPath id="_clip1"><path d="M509.913,689.467c0,-29.439 11.045,-54.047 33.136,-73.826c22.091,-19.779 50.557,-29.669 85.4,-29.669c49.569,0 82.615,16.099 99.138,48.298c7.903,-15.64 21.193,-27.752 39.871,-36.338c17.601,-7.973 37.357,-11.96 59.268,-11.96c37.716,0.307 66.991,8.586 87.824,24.839c22.63,17.786 33.944,44.311 33.944,79.576l-0.538,327.503l-78.665,0l0,-317.844c0,-28.825 -15.266,-43.391 -45.798,-43.697c-21.192,-0 -36.189,4.216 -44.989,12.649c-8.801,8.433 -13.201,21.849 -13.201,40.248l0,308.644l-79.742,0l0,-308.644c0,-33.732 -16.882,-51.364 -50.647,-52.897c-31.25,-1.227 -46.875,13.492 -46.875,44.157l-0,317.384l-78.126,0l0,-328.423Z" clip-rule="nonzero"/></clipPath><g clip-path="url(#_clip1)"><path d="M727.869,624.537l22.191,126.045l-22.191,38.479l-22.192,-38.479l22.192,-126.045Z" style="fill:#fff;"/></g><path d="M1290.18,905.871c0,18.986 -6.135,39.349 -18.405,61.09c-19.898,34.603 -49.744,51.904 -89.539,51.904l-194.499,0l-0,-430.387l203.453,0.46c13.928,-0 30.675,9.339 50.241,28.018c24.541,23.579 36.645,51.598 36.313,84.057c0,15.004 -2.321,28.478 -6.964,40.42c-9.617,24.804 -27.525,41.339 -53.723,49.607l-0,-0.918c48.749,15.31 73.123,53.894 73.123,115.749Zm-83.072,-191.997c-0,-12.861 -2.322,-23.885 -6.964,-33.072c-10.944,-22.047 -32.002,-33.071 -63.175,-33.071l-78.596,0l0.498,118.046l73.123,-0.918c44.438,-0.306 69.476,-17.301 75.114,-50.985Zm10.943,183.27c-6.632,-48.994 -30.343,-73.339 -71.133,-73.032l-88.047,0.918l-0.498,133.204l90.534,0c43.443,0 66.491,-20.363 69.144,-61.09Z" style="fill:#135c16;fill-rule:nonzero;"/></g><circle cx="728.71" cy="527.891" r="45.195" style="fill:#135c16;"/></g></g><g><text x="1393.43px" y="1022.74px" style="font-family:'GillSansMT-Condensed', 'Gill Sans MT Condensed', sans-serif;font-stretch:condensed;font-size:647.26px;fill:#69b300;">f<tspan x="1509.63px 1715.48px 1870.02px " y="1022.74px 1022.74px 1022.74px ">arm</tspan></text><rect x="1428.8" y="1022.59" width="744.252" height="28.52" style="fill:#69b300;"/></g></g></svg>