<?xml version="1.0" encoding="UTF-8" standalone="no"?><!DOCTYPE svg PUBLIC "-//W3C//DTD SVG 1.1//EN" "http://www.w3.org/Graphics/SVG/1.1/DTD/svg11.dtd"><svg width="100%" height="100%" viewBox="0 0 1040 815" version="1.1" xmlns="http://www.w3.org/2000/svg" xmlns:xlink="http://www.w3.org/1999/xlink" xml:space="preserve" xmlns:serif="http://www.serif.com/" style="fill-rule:evenodd;clip-rule:evenodd;stroke-linecap:round;stroke-linejoin:round;stroke-miterlimit:1.5;"><g><g><path d="M726.267,194.324c274.517,176.879 356.141,384.214 283.967,615.833l-489.244,0.454" style="fill:none;stroke:#fff;stroke-width:8.75px;"/><path d="M313.261,194.324c-274.518,176.879 -356.141,384.214 -283.967,615.833l489.244,0.454" style="fill:none;stroke:#fff;stroke-width:8.75px;"/></g><g><path d="M459.301,47.654c-39.983,-39.963 -118.226,-44.597 -173.588,-44.597c-5.738,0 -10.391,4.653 -10.391,10.391c0,55.383 4.634,133.625 44.597,173.61c18.763,16.71 43.289,25.466 68.392,24.418c25.884,1.02 51.21,-7.692 70.99,-24.418c29.78,-29.802 35.245,-104.158 0,-139.404Z" style="fill:#fdfffb;fill-rule:nonzero;"/><path d="M722.582,44.163c-55.382,-0 -133.625,4.634 -173.609,44.597c-35.329,35.329 -29.78,109.581 -0,139.382c19.786,16.729 45.12,25.441 71.01,24.418c25.103,1.046 49.629,-7.71 68.392,-24.418c39.984,-39.984 44.597,-118.226 44.597,-173.609c-0.011,-5.73 -4.659,-10.37 -10.39,-10.37Z" style="fill:#fff;fill-rule:nonzero;"/></g><path d="M382.367,453.098c184.893,-169.196 15.01,-323.867 -10.473,-341.291c-3.67,-2.343 -7.144,-4.977 -10.391,-7.876c-3.987,-4.128 -3.872,-10.706 0.255,-14.693c4.027,-3.89 10.411,-3.89 14.438,-0c2.346,1.984 4.832,3.797 7.439,5.424c27.016,18.474 90.649,62.012 112.657,204.822c17.007,-74.662 67.423,-137.348 136.701,-169.971c5.305,-2.496 11.637,-0.497 14.547,4.593c2.628,4.632 1.005,10.516 -3.627,13.146c-0.173,0.098 -0.351,0.191 -0.53,0.279l-1.683,0.79c-98.711,24.854 -111.934,191.822 -209.566,304.777l-49.767,0Z" style="fill:#fff;fill-rule:nonzero;"/><circle cx="215.336" cy="618.702" r="167.042" style="fill:#fff;"/><g><g><path d="M394.243,531.713c0,-22.702 8.519,-41.681 25.555,-56.934c17.036,-15.253 38.989,-22.88 65.859,-22.88c38.228,-0 63.713,12.415 76.456,37.247c6.094,-12.061 16.344,-21.403 30.748,-28.024c13.574,-6.149 28.809,-9.223 45.707,-9.223c29.086,0.236 51.663,6.621 67.73,19.155c17.451,13.717 26.177,34.173 26.177,61.369l-0.415,252.569l-60.666,-0l0,-245.12c0,-22.23 -11.773,-33.463 -35.319,-33.699c-16.344,-0 -27.909,3.251 -34.696,9.755c-6.787,6.503 -10.18,16.85 -10.18,31.039l0,238.025l-61.497,-0l0,-238.025c0,-26.014 -13.019,-39.612 -39.058,-40.794c-24.1,-0.946 -36.15,10.405 -36.15,34.054l-0,244.765l-60.251,-0l0,-253.279Z" style="fill:#fff;fill-rule:nonzero;"/><clipPath id="_clip1"><path d="M394.243,531.713c0,-22.702 8.519,-41.681 25.555,-56.934c17.036,-15.253 38.989,-22.88 65.859,-22.88c38.228,-0 63.713,12.415 76.456,37.247c6.094,-12.061 16.344,-21.403 30.748,-28.024c13.574,-6.149 28.809,-9.223 45.707,-9.223c29.086,0.236 51.663,6.621 67.73,19.155c17.451,13.717 26.177,34.173 26.177,61.369l-0.415,252.569l-60.666,-0l0,-245.12c0,-22.23 -11.773,-33.463 -35.319,-33.699c-16.344,-0 -27.909,3.251 -34.696,9.755c-6.787,6.503 -10.18,16.85 -10.18,31.039l0,238.025l-61.497,-0l0,-238.025c0,-26.014 -13.019,-39.612 -39.058,-40.794c-24.1,-0.946 -36.15,10.405 -36.15,34.054l-0,244.765l-60.251,-0l0,-253.279Z" clip-rule="nonzero"/></clipPath><g clip-path="url(#_clip1)"><path d="M562.33,481.64l17.114,97.205l-17.114,29.675l-17.114,-29.675l17.114,-97.205Z" style="fill:#135c16;"/></g><path d="M995.982,698.604c0,14.641 -4.731,30.345 -14.194,47.112c-15.345,26.685 -38.362,40.028 -69.052,40.028l-149.996,-0l-0,-331.912l156.901,0.354c10.742,-0 23.657,7.202 38.746,21.608c18.926,18.183 28.261,39.791 28.005,64.824c-0,11.571 -1.79,21.962 -5.371,31.172c-7.417,19.128 -21.227,31.88 -41.431,38.256l-0,-0.708c37.595,11.808 56.392,41.563 56.392,89.266Zm-64.065,-148.068c0,-9.918 -1.79,-18.42 -5.37,-25.504c-8.44,-17.003 -24.68,-25.505 -48.72,-25.505l-60.613,0l0.384,91.037l56.392,-0.709c34.271,-0.236 53.58,-13.342 57.927,-39.319Zm8.44,141.337c-5.115,-37.784 -23.401,-56.558 -54.858,-56.322l-67.901,0.708l-0.384,102.727l69.819,-0c33.504,-0 51.278,-15.705 53.324,-47.113Z" style="fill:#fff;fill-rule:nonzero;"/></g><circle cx="562.978" cy="407.107" r="34.854" style="fill:#fff;"/></g></g></svg>