<?xml version="1.0" encoding="UTF-8" standalone="no"?>
<!DOCTYPE svg PUBLIC "-//W3C//DTD SVG 1.1//EN" "http://www.w3.org/Graphics/SVG/1.1/DTD/svg11.dtd">
<svg width="100%" height="100%" viewBox="0 0 1142 1142" version="1.1" xmlns="http://www.w3.org/2000/svg" xmlns:xlink="http://www.w3.org/1999/xlink" xml:space="preserve" xmlns:serif="http://www.serif.com/" style="fill-rule:evenodd;clip-rule:evenodd;stroke-linejoin:round;stroke-miterlimit:1.41421;">
    <g transform="matrix(1,0,0,1,-7047.59,-669.521)">
        <g transform="matrix(1,0,0,1,-0.780979,0)">
            <g transform="matrix(1,0,0,1,45.4972,-28.5318)">
                <path d="M7573.51,698.052C7888.45,698.052 8144.15,953.746 8144.15,1268.69C8144.15,1583.63 7888.45,1839.33 7573.51,1839.33C7258.57,1839.33 7002.87,1583.63 7002.87,1268.69C7002.87,953.746 7258.57,698.052 7573.51,698.052ZM7572.15,931.53L7352.29,931.53L7352.29,1605.85L7501.47,1605.85L7501.47,1352.45L7572.15,1352.45C7721.49,1352.45 7794.72,1293.75 7794.72,1185.85L7794.72,1098.13C7794.72,990.23 7721.49,931.531 7572.15,931.53ZM7572.15,1256.22L7501.47,1256.22L7501.47,1027.76L7572.15,1027.76C7619.72,1027.76 7645.55,1043.18 7645.55,1091.38L7645.55,1192.6C7645.55,1240.8 7619.72,1256.22 7572.15,1256.22Z" style="fill:white;"/>
            </g>
        </g>
    </g>
</svg>
